<svg width="24" height="25" viewBox="0 0 24 25" fill="none" xmlns="http://www.w3.org/2000/svg">
<g clip-path="url(#clip0_207_35)">
<path d="M19.5 10.5H19V9.5C19 8.70435 18.6839 7.94129 18.1213 7.37868C17.5587 6.81607 16.7957 6.5 16 6.5H4C3.20435 6.5 2.44129 6.81607 1.87868 7.37868C1.31607 7.94129 1 8.70435 1 9.5V19.5C1.00159 20.8256 1.52888 22.0964 2.46622 23.0338C3.40356 23.9711 4.67441 24.4984 6 24.5H14C15.1522 24.4985 16.2687 24.0999 17.1613 23.3713C18.0538 22.6427 18.6679 21.6286 18.9 20.5C19.4046 20.5709 19.9185 20.5338 20.4078 20.3912C20.897 20.2487 21.3504 20.0039 21.7379 19.673C22.1255 19.3422 22.4384 18.9328 22.656 18.472C22.8735 18.0112 22.9908 17.5095 23 17V14C23 13.0717 22.6313 12.1815 21.9749 11.5251C21.3185 10.8687 20.4283 10.5 19.5 10.5ZM14 22.5H6C5.20435 22.5 4.44129 22.1839 3.87868 21.6213C3.31607 21.0587 3 20.2956 3 19.5V9.5C3 9.23478 3.10536 8.98043 3.29289 8.79289C3.48043 8.60536 3.73478 8.5 4 8.5H16C16.2652 8.5 16.5196 8.60536 16.7071 8.79289C16.8946 8.98043 17 9.23478 17 9.5V19.5C17 20.2956 16.6839 21.0587 16.1213 21.6213C15.5587 22.1839 14.7957 22.5 14 22.5ZM21 17C20.9889 17.2386 20.9251 17.4718 20.8133 17.6829C20.7015 17.894 20.5445 18.0778 20.3534 18.2212C20.1623 18.3645 19.9418 18.4638 19.7079 18.512C19.4739 18.5602 19.2322 18.5561 19 18.5V12.5C19.2322 12.4439 19.4739 12.4398 19.7079 12.488C19.9418 12.5362 20.1623 12.6355 20.3534 12.7788C20.5445 12.9222 20.7015 13.106 20.8133 13.3171C20.9251 13.5282 20.9889 13.7614 21 14V17ZM9 3.5V1.5C9 1.23478 9.10536 0.98043 9.29289 0.792893C9.48043 0.605357 9.73478 0.5 10 0.5C10.2652 0.5 10.5196 0.605357 10.7071 0.792893C10.8946 0.98043 11 1.23478 11 1.5V3.5C11 3.76522 10.8946 4.01957 10.7071 4.20711C10.5196 4.39464 10.2652 4.5 10 4.5C9.73478 4.5 9.48043 4.39464 9.29289 4.20711C9.10536 4.01957 9 3.76522 9 3.5ZM13 3.5V1.5C13 1.23478 13.1054 0.98043 13.2929 0.792893C13.4804 0.605357 13.7348 0.5 14 0.5C14.2652 0.5 14.5196 0.605357 14.7071 0.792893C14.8946 0.98043 15 1.23478 15 1.5V3.5C15 3.76522 14.8946 4.01957 14.7071 4.20711C14.5196 4.39464 14.2652 4.5 14 4.5C13.7348 4.5 13.4804 4.39464 13.2929 4.20711C13.1054 4.01957 13 3.76522 13 3.5ZM5 3.5V1.5C5 1.23478 5.10536 0.98043 5.29289 0.792893C5.48043 0.605357 5.73478 0.5 6 0.5C6.26522 0.5 6.51957 0.605357 6.70711 0.792893C6.89464 0.98043 7 1.23478 7 1.5V3.5C7 3.76522 6.89464 4.01957 6.70711 4.20711C6.51957 4.39464 6.26522 4.5 6 4.5C5.73478 4.5 5.48043 4.39464 5.29289 4.20711C5.10536 4.01957 5 3.76522 5 3.5Z" fill="#003B40"/>
</g>
<defs>
<clipPath id="clip0_207_35">
<rect width="24" height="24" fill="white" transform="translate(0 0.5)"/>
</clipPath>
</defs>
</svg>
