<svg width="24" height="24" viewBox="0 0 24 24" fill="none" xmlns="http://www.w3.org/2000/svg">
<g clip-path="url(#clip0_207_19)">
<path d="M21.341 5.125C21.0608 4.77324 20.7046 4.48935 20.2993 4.29454C19.8939 4.09973 19.4497 3.99905 19 4H14.673L14.8 2.89C14.827 2.646 14.9428 2.42045 15.1254 2.25632C15.3079 2.0922 15.5445 2.00097 15.79 2H20C20.2652 2 20.5196 1.89464 20.7071 1.70711C20.8946 1.51957 21 1.26522 21 1C21 0.734784 20.8946 0.48043 20.7071 0.292893C20.5196 0.105357 20.2652 0 20 0L15.79 0C15.0518 0.000168296 14.3395 0.272519 13.7896 0.764943C13.2396 1.25737 12.8904 1.93529 12.809 2.669L12.661 4H5C4.56038 4.00408 4.12696 4.10409 3.73001 4.29305C3.33306 4.482 2.98215 4.75535 2.70179 5.09399C2.42143 5.43262 2.21839 5.82839 2.10685 6.25363C1.9953 6.67888 1.97795 7.12335 2.056 7.556L3.568 19.622C3.7212 20.8302 4.3094 21.9411 5.22254 22.747C6.13567 23.5528 7.31115 23.9982 8.529 24H15.47C16.6881 23.998 17.8637 23.5524 18.7769 22.7464C19.6902 21.9404 20.2786 20.8294 20.432 19.621L21.932 7.653C22.0304 7.21433 22.0284 6.75908 21.926 6.32131C21.8237 5.88354 21.6237 5.47457 21.341 5.125ZM19 6C19.15 5.99994 19.298 6.03362 19.4332 6.09853C19.5684 6.16344 19.6873 6.25793 19.781 6.375C19.8814 6.50662 19.9499 6.65979 19.9809 6.8224C20.012 6.98502 20.0048 7.15263 19.96 7.312L19.622 10H14.006L14.451 6H19ZM4.221 6.374C4.31461 6.25738 4.4332 6.16324 4.56801 6.09851C4.70283 6.03379 4.85045 6.00012 5 6H12.437L11.992 10H4.374L4.024 7.216C3.99122 7.06988 3.99191 6.91824 4.02603 6.77243C4.06014 6.62662 4.1268 6.49041 4.221 6.374ZM18.447 19.374C18.3548 20.0988 18.0018 20.7652 17.4538 21.2486C16.9059 21.7319 16.2006 21.999 15.47 22H8.529C7.79822 21.9999 7.09263 21.733 6.54468 21.2495C5.99673 20.766 5.6441 20.0991 5.553 19.374L4.626 12H19.371L18.447 19.374ZM13.438 15.11L12.994 19.11C12.9796 19.2405 12.9395 19.3669 12.8762 19.482C12.8129 19.5971 12.7276 19.6986 12.6251 19.7806C12.5226 19.8627 12.4049 19.9238 12.2788 19.9604C12.1526 19.997 12.0205 20.0084 11.89 19.994C11.7595 19.9796 11.6331 19.9395 11.518 19.8762C11.4029 19.8129 11.3014 19.7276 11.2193 19.6251C11.1373 19.5226 11.0762 19.4049 11.0396 19.2788C11.003 19.1526 10.9916 19.0205 11.006 18.89L11.45 14.89C11.4826 14.6277 11.6164 14.3885 11.8228 14.2234C12.0292 14.0583 12.2919 13.9803 12.555 14.006C12.8184 14.0354 13.0594 14.1682 13.225 14.3752C13.3906 14.5822 13.4672 14.8465 13.438 15.11Z" fill="#B7C1C2"/>
</g>
<defs>
<clipPath id="clip0_207_19">
<rect width="24" height="24" fill="white"/>
</clipPath>
</defs>
</svg>
