<svg width="25" height="24" viewBox="0 0 25 24" fill="none" xmlns="http://www.w3.org/2000/svg">
<path d="M22.875 3.78503C21.3791 2.93354 19.7337 2.37714 18.028 2.14603C17.7698 1.6491 17.4104 1.21173 16.973 0.862028C16.502 0.487456 15.9519 0.224999 15.3644 0.0945367C14.7768 -0.0359252 14.1673 -0.0309697 13.582 0.109028C12.331 0.424701 11.1177 0.874298 9.96303 1.45003C9.14335 1.06031 8.2278 0.918108 7.32853 1.04084C6.42926 1.16357 5.5853 1.54591 4.90003 2.14103C4.53303 2.45603 4.16403 2.78503 3.80003 3.12403C3.41803 3.48303 3.02903 3.89103 2.64103 4.33403C2.15487 4.88984 1.80791 5.55334 1.62882 6.26973C1.44972 6.98611 1.44362 7.73482 1.61103 8.45403C1.68831 8.79353 1.80266 9.12351 1.95203 9.43803C1.37239 10.6009 0.919132 11.8225 0.600028 13.082C0.45943 13.6673 0.454173 14.2769 0.584657 14.8645C0.715141 15.4522 0.977929 16.0023 1.35303 16.473C1.70637 16.915 2.14946 17.277 2.65303 17.535C2.88474 19.2382 3.44078 20.8812 4.29103 22.375C4.62091 22.9676 5.13228 23.4387 5.74991 23.719C6.36753 23.9993 7.0588 24.074 7.72203 23.932C8.40808 23.7962 9.03222 23.4432 9.50223 22.9253C9.97223 22.4074 10.2632 21.752 10.332 21.056C10.5187 19.7687 10.857 18.5079 11.34 17.3C11.34 17.3 11.885 16.964 12.134 16.761C12.7336 16.2582 13.1591 15.5789 13.35 14.82C13.8124 14.667 14.2328 14.4085 14.578 14.065C14.9143 13.7227 15.1687 13.3087 15.322 12.854C16.0783 12.6622 16.7549 12.2371 17.256 11.639C17.456 11.39 17.796 10.844 17.796 10.844C19.0013 10.3481 20.2648 10.0077 21.556 9.83103C22.252 9.76216 22.9074 9.47123 23.4253 9.00123C23.9432 8.53122 24.2962 7.90708 24.432 7.22103C24.5763 6.55703 24.5027 5.86422 24.2223 5.24531C23.9418 4.6264 23.4694 4.11434 22.875 3.78503ZM8.33903 20.833C8.31496 21.1088 8.2017 21.3693 8.0164 21.575C7.83109 21.7807 7.58383 21.9204 7.31203 21.973C7.06192 22.0299 6.80003 22.003 6.56673 21.8964C6.33343 21.7898 6.14168 21.6094 6.02103 21.383C5.41963 20.3298 4.98863 19.188 4.74403 18H8.64403C8.75303 18 8.85903 17.978 8.96703 17.972C8.68103 18.855 8.33903 20.829 8.33903 20.833ZM10.869 15.207C10.2412 15.719 9.45614 15.999 8.64603 16H4.50003C4.19584 16.0007 3.8955 15.9319 3.62188 15.799C3.34826 15.6661 3.10856 15.4725 2.92103 15.233C2.73397 14.9987 2.60279 14.7247 2.53747 14.4321C2.47214 14.1394 2.47438 13.8357 2.54403 13.544C2.74423 12.7367 3.01184 11.9476 3.34403 11.185C3.65274 11.4266 3.99075 11.6282 4.35003 11.785L11.027 14.709C11.089 14.738 11.155 14.749 11.218 14.773C11.1285 14.9374 11.0103 15.0844 10.869 15.207ZM13.154 12.655C12.9869 12.8245 12.7714 12.9379 12.5372 12.9798C12.303 13.0217 12.0615 12.99 11.846 12.889L5.15303 9.95803C4.75397 9.78318 4.40216 9.51602 4.12659 9.17856C3.85102 8.8411 3.65958 8.44299 3.56803 8.01703C3.47097 7.60413 3.47349 7.17407 3.57538 6.76234C3.67727 6.35061 3.87561 5.96901 4.15403 5.64903C4.50003 5.25503 4.84203 4.89503 5.17703 4.58003C5.51203 4.26503 5.85903 3.95503 6.20403 3.66003C6.52242 3.38293 6.90165 3.1848 7.31095 3.08171C7.72025 2.97862 8.14809 2.97348 8.55975 3.0667C8.97141 3.15992 9.3553 3.34888 9.68025 3.61825C10.0052 3.88761 10.2621 4.2298 10.43 4.61703L13.394 11.307C13.4932 11.53 13.5233 11.7776 13.4806 12.0178C13.4378 12.258 13.3241 12.48 13.154 12.655ZM16.5 8.14603C16.4994 8.95603 16.2197 9.74107 15.708 10.369C15.5911 10.5044 15.4522 10.619 15.297 10.708C15.271 10.638 15.252 10.566 15.222 10.497L12.259 3.80803C12.1092 3.46842 11.9207 3.14728 11.697 2.85103C12.4558 2.51968 13.2408 2.25208 14.044 2.05103C14.3357 1.98123 14.6394 1.97891 14.9321 2.04425C15.2248 2.10958 15.4987 2.24084 15.733 2.42803C15.9731 2.61598 16.167 2.85632 16.2999 3.13068C16.4328 3.40504 16.5013 3.70616 16.5 4.01103V8.14603ZM22.473 6.81203C22.4204 7.08383 22.2807 7.33109 22.075 7.5164C21.8693 7.7017 21.6088 7.81496 21.333 7.83903C21.333 7.83903 19.355 8.18103 18.472 8.46903C18.479 8.36103 18.5 8.25503 18.5 8.14603V4.24603C19.688 4.49063 20.8298 4.92163 21.883 5.52303C22.1086 5.64397 22.2885 5.83545 22.395 6.06821C22.5016 6.30098 22.529 6.56222 22.473 6.81203Z" fill="#B7C1C2"/>
</svg>
